HIERARCHY
ROOT joint_0
{
	OFFSET 0.000000 0.000000 0.000000
	CHANNELS 6 Xposition Yposition Zposition Zrotation Yrotation Xrotation 
	JOINT joint_1
	{
		OFFSET 6.590088 -1.122192 114.019043
		CHANNELS 3 Zrotation Yrotation Xrotation
		JOINT joint_2
		{
			OFFSET -5.956055 -0.820435 104.151001
			CHANNELS 3 Zrotation Yrotation Xrotation
			JOINT joint_3
			{
				OFFSET -7.343506 -1.103027 103.942993
				CHANNELS 3 Zrotation Yrotation Xrotation
				JOINT joint_4
				{
					OFFSET 3.109131 -2.857056 147.715942
					CHANNELS 3 Zrotation Yrotation Xrotation
					JOINT joint_5
					{
						OFFSET 28.592285 -2.852295 87.703979
						CHANNELS 3 Zrotation Yrotation Xrotation
						End Site
						{
							OFFSET 0.000000 0.000000 0.000000
						}
					}
				}
				JOINT joint_6
				{
					OFFSET -0.332520 -33.687378 82.401978
					CHANNELS 3 Zrotation Yrotation Xrotation
					JOINT joint_7
					{
						OFFSET -7.397461 -168.719177 -22.750977
						CHANNELS 3 Zrotation Yrotation Xrotation
						JOINT joint_8
						{
							OFFSET 17.065918 -24.903137 -272.721069
							CHANNELS 3 Zrotation Yrotation Xrotation
							JOINT joint_9
							{
								OFFSET 33.311279 -37.031616 -278.192993
								CHANNELS 3 Zrotation Yrotation Xrotation
								End Site
								{
									OFFSET 0.000000 0.000000 0.000000
								}
							}
						}
					}
				}
				JOINT joint_10
				{
					OFFSET 3.914307 30.461670 83.552979
					CHANNELS 3 Zrotation Yrotation Xrotation
					JOINT joint_11
					{
						OFFSET 15.543701 166.845459 -30.963013
						CHANNELS 3 Zrotation Yrotation Xrotation
						JOINT joint_12
						{
							OFFSET 35.734863 35.017700 -269.786011
							CHANNELS 3 Zrotation Yrotation Xrotation
							JOINT joint_13
							{
								OFFSET 70.506592 13.977783 -273.320007
								CHANNELS 3 Zrotation Yrotation Xrotation
								End Site
								{
									OFFSET 0.000000 0.000000 0.000000
								}
							}
						}
					}
				}
			}
		}
	}
	JOINT joint_14
	{
		OFFSET -0.314697 -95.093994 -116.004028
		CHANNELS 3 Zrotation Yrotation Xrotation
		JOINT joint_15
		{
			OFFSET -22.490723 2.017883 -455.510986
			CHANNELS 3 Zrotation Yrotation Xrotation
			JOINT joint_16
			{
				OFFSET -46.427490 7.144104 -496.360985
				CHANNELS 3 Zrotation Yrotation Xrotation
				JOINT joint_17
				{
					OFFSET 209.055420 -37.122803 -85.191002
					CHANNELS 3 Zrotation Yrotation Xrotation
					End Site
					{
						OFFSET 0.000000 0.000000 0.000000
					}
				}
			}
		}
	}
	JOINT joint_18
	{
		OFFSET 5.652832 94.642578 -116.244019
		CHANNELS 3 Zrotation Yrotation Xrotation
		JOINT joint_19
		{
			OFFSET -12.379883 -7.332642 -455.843994
			CHANNELS 3 Zrotation Yrotation Xrotation
			JOINT joint_20
			{
				OFFSET -45.227051 -8.172241 -496.457985
				CHANNELS 3 Zrotation Yrotation Xrotation
				JOINT joint_21
				{
					OFFSET 210.522949 -11.530396 -88.809004
					CHANNELS 3 Zrotation Yrotation Xrotation
					End Site
					{
						OFFSET 0.000000 0.000000 0.000000
					}
				}
			}
		}
	}
}
MOTION
Frames: 7
Frame Time: 0.016667
-3170.826660 917.620972 1183.993042 -1.864220 -1.880731 0.427906 0.847268 0.404258 -1.237373 0.930666 -0.128044 0.303432 0.895727 0.125222 -0.228042 -0.327404 -3.362507 0.669405 0.000000 0.000000 0.000000 0.171617 -0.247939 1.085332 0.117069 -0.426650 5.351861 -0.674283 3.499641 -1.683804 0.000000 0.000000 0.000000 1.059134 0.347177 1.660848 -0.803584 0.725487 -6.055352 1.614681 8.087726 4.926725 0.000000 0.000000 0.000000 -0.919130 -1.470914 -0.628686 -0.915240 4.150512 -0.280448 -0.983779 -0.629067 -0.511826 0.000000 0.000000 0.000000 4.599032 -0.736091 -0.662268 4.535475 1.175548 0.508515 4.440222 -0.147830 1.862785 0.000000 0.000000 0.000000 
-3170.868164 917.717163 1183.974976 -1.885279 -1.900419 0.428493 0.851285 0.409605 -1.245224 0.935286 -0.130229 0.307007 0.899948 0.126878 -0.230690 -0.327129 -3.366962 0.668166 0.000000 0.000000 0.000000 0.161972 -0.244405 1.092540 0.116713 -0.423782 5.345166 -0.674047 3.500281 -1.682084 0.000000 0.000000 0.000000 1.055896 0.352767 1.656959 -0.799281 0.731418 -6.048496 1.617017 8.073896 4.937872 0.000000 0.000000 0.000000 -0.913516 -1.460775 -0.635350 -0.909813 4.163608 -0.282827 -0.979129 -0.628611 -0.509848 0.000000 0.000000 0.000000 4.607790 -0.721418 -0.656835 4.544827 1.189021 0.492376 4.448040 -0.151616 1.865896 0.000000 0.000000 0.000000 
-3170.910645 917.817322 1183.953003 -1.903631 -1.922584 0.427811 0.853509 0.418764 -1.249748 0.937875 -0.132285 0.310083 0.902200 0.129140 -0.233028 -0.326656 -3.370185 0.666482 0.000000 0.000000 0.000000 0.153807 -0.241919 1.097738 0.116521 -0.421944 5.340155 -0.673783 3.498409 -1.683018 0.000000 0.000000 0.000000 1.054658 0.358107 1.652405 -0.795039 0.736835 -6.043569 1.618964 8.056274 4.947878 0.000000 0.000000 0.000000 -0.908743 -1.447413 -0.639996 -0.905080 4.175656 -0.286321 -0.975228 -0.625884 -0.507772 0.000000 0.000000 0.000000 4.615788 -0.705294 -0.651487 4.553337 1.204236 0.478983 4.455383 -0.157260 1.868701 0.000000 0.000000 0.000000 
-3170.957520 917.922302 1183.930054 -1.919189 -1.945341 0.424358 0.852789 0.432026 -1.247557 0.937024 -0.136813 0.311830 0.901246 0.134192 -0.234228 -0.325002 -3.370375 0.661549 0.000000 0.000000 0.000000 0.151071 -0.241554 1.103466 0.116198 -0.421449 5.335019 -0.673935 3.494593 -1.689595 0.000000 0.000000 0.000000 1.058013 0.363909 1.643542 -0.790307 0.741863 -6.041781 1.621669 8.033342 4.961595 0.000000 0.000000 0.000000 -0.904682 -1.432612 -0.640232 -0.900765 4.185209 -0.291567 -0.971837 -0.618791 -0.505127 0.000000 0.000000 0.000000 4.623047 -0.691246 -0.646915 4.560812 1.223023 0.472244 4.462481 -0.165008 1.871278 0.000000 0.000000 0.000000 
-3171.005371 918.030273 1183.901978 -1.931817 -1.970824 0.419612 0.849813 0.449731 -1.241943 0.933604 -0.141226 0.311933 0.897954 0.138996 -0.233777 -0.322975 -3.368635 0.655712 0.000000 0.000000 0.000000 0.151341 -0.242111 1.106576 0.115995 -0.421702 5.332206 -0.674205 3.488680 -1.699570 0.000000 0.000000 0.000000 1.065091 0.369772 1.633763 -0.785658 0.746386 -6.042352 1.624042 8.006420 4.974503 0.000000 0.000000 0.000000 -0.901648 -1.414330 -0.638298 -0.897318 4.193905 -0.297996 -0.969373 -0.609856 -0.502533 0.000000 0.000000 0.000000 4.629653 -0.675546 -0.642268 4.567567 1.243548 0.467957 4.469198 -0.174736 1.873581 0.000000 0.000000 0.000000 
-3171.035400 918.137024 1183.863037 -1.936909 -2.007966 0.417961 0.842570 0.477773 -1.240162 0.926015 -0.149163 0.311442 0.890627 0.147381 -0.233152 -0.321284 -3.362680 0.651377 0.000000 0.000000 0.000000 0.155555 -0.243389 1.101010 0.116518 -0.422851 5.334742 -0.673773 3.481087 -1.705660 0.000000 0.000000 0.000000 1.076333 0.374336 1.631697 -0.782677 0.749315 -6.043882 1.623471 7.979881 4.975249 0.000000 0.000000 0.000000 -0.901023 -1.382116 -0.638974 -0.896294 4.204276 -0.306817 -0.969483 -0.604472 -0.501615 0.000000 0.000000 0.000000 4.633702 -0.642389 -0.640639 4.572081 1.256999 0.464096 4.473639 -0.183790 1.874964 0.000000 0.000000 0.000000 
-3171.067139 918.240662 1183.813965 -1.932860 -2.051996 0.422791 0.829832 0.506147 -1.248435 0.913556 -0.159229 0.312309 0.878364 0.158681 -0.232886 -0.320247 -3.346684 0.650080 0.000000 0.000000 0.000000 0.164832 -0.245607 1.083117 0.118010 -0.425411 5.348469 -0.672963 3.471297 -1.711165 0.000000 0.000000 0.000000 1.090409 0.377990 1.641093 -0.781863 0.751389 -6.044934 1.618177 7.953760 4.956377 0.000000 0.000000 0.000000 -0.903475 -1.345055 -0.645382 -0.898419 4.221560 -0.319198 -0.973096 -0.603078 -0.502829 0.000000 0.000000 0.000000 4.635368 -0.595962 -0.645950 4.574458 1.259208 0.459670 4.475643 -0.187940 1.875591 0.000000 0.000000 0.000000 
